<?xml version="1.0"?>
<svg xmlns="http://www.w3.org/2000/svg" xmlns:xlink="http://www.w3.org/1999/xlink" xmlns:svgjs="http://svgjs.com/svgjs" version="1.1" width="512" height="512" x="0" y="0" viewBox="0 0 294.536 294.536" style="enable-background:new 0 0 512 512" xml:space="preserve" class=""><g transform="matrix(-1,0,0,1,294.5359802246094,0)">
<path xmlns="http://www.w3.org/2000/svg" d="M269.536,104.285v8.906h-16.509V92.557H109.422l20.963-36.143h108.526v-25H115.984L80.521,92.557H47.642v42.149L0,120.735  v114.208l47.642-13.97v42.149h205.385V160.223h16.509v8.906h25v-64.844H269.536z M148.126,244.15c-11.044,0-20-8.953-20-20  c0-11.047,8.956-20,20-20c11.051,0,20,8.953,20,20C168.126,235.197,159.177,244.15,148.126,244.15z M212.381,244.15  c-11.043,0-20-8.954-20-20s8.957-20,20-20c11.049,0,20,8.954,20,20S223.429,244.15,212.381,244.15z" fill="#ffffff" data-original="#000000" style="" class=""/>
<g xmlns="http://www.w3.org/2000/svg">
</g>
<g xmlns="http://www.w3.org/2000/svg">
</g>
<g xmlns="http://www.w3.org/2000/svg">
</g>
<g xmlns="http://www.w3.org/2000/svg">
</g>
<g xmlns="http://www.w3.org/2000/svg">
</g>
<g xmlns="http://www.w3.org/2000/svg">
</g>
<g xmlns="http://www.w3.org/2000/svg">
</g>
<g xmlns="http://www.w3.org/2000/svg">
</g>
<g xmlns="http://www.w3.org/2000/svg">
</g>
<g xmlns="http://www.w3.org/2000/svg">
</g>
<g xmlns="http://www.w3.org/2000/svg">
</g>
<g xmlns="http://www.w3.org/2000/svg">
</g>
<g xmlns="http://www.w3.org/2000/svg">
</g>
<g xmlns="http://www.w3.org/2000/svg">
</g>
<g xmlns="http://www.w3.org/2000/svg">
</g>
</g></svg>
